<svg xmlns="http://www.w3.org/2000/svg" viewBox="0 0 130 120" enable-background="new 0 0 130 120"><path fill="#D8D8D8" d="M-200-1160h2180v1700h-2180z"/><g><g><path fill="#2A66B7" d="M20.2 120h26.1v-24.2zM46.3 0h-25.7l25.7 23.9zM0 78.7v22.7l24.6-22.7zM130 101.8v-23.1h-24.9zM0 18.2v23.1h24.9zM130 41.3v-22.7l-24.6 22.7zM83.7 120h25.7l-25.7-23.9zM109.8 0h-26.1v24.2z"/><g fill="#DC4437"><path d="M85.1 78.7h-1.4v7.8l36 33.5h10.299999999999999v-8.6l-35.2-32.7zM44.9 41.3h1.4v-7.8l-36-33.5h-10.299999999999999v8.6l35.2 32.7zM34.9 78.7l-34.9 32.2v9.1h9.8l36.5-33.7v-7.6h-1.5zM120.2 0l-36.5 33.7v7.6h11.4l34.9-32.2v-9.1zM76.7 0h-23.4v48.3h-53.3v23.4h53.3v48.3h23.4v-48.3h53.3v-23.4h-53.3z"/></g><g fill="#fff"><path d="M95.1 41.3h-11.4v-7.6l36.5-33.7h-10.4l-26.1 24.2v-24.2h-7v48.3h53.3v-7h-24.6l24.6-22.7v-9.5zM46.3 23.9l-25.7-23.9h-10.3l36 33.5v7.8h-11.1l-35.2-32.7v9.6l24.9 23.1h-24.9v7h53.3v-48.3h-7zM76.7 71.7v48.3h7v-23.9l25.7 23.9h10.3l-36-33.5v-7.8h11.1l35.2 32.7v-9.6l-24.9-23.1h24.9v-7h-37.5zM0 71.7v7h24.6l-24.6 22.7v9.5l34.9-32.2h11.4v7.6l-36.5 33.7h10.4l26.1-24.2v24.2h7v-48.3h-.9z"/></g></g></g></svg>