<?xml version="1.0" encoding="UTF-8" standalone="no"?>
<svg width="24px" height="24px" viewBox="0 0 24 24" version="1.1" xmlns="http://www.w3.org/2000/svg" xmlns:xlink="http://www.w3.org/1999/xlink">
    <defs></defs>
    <g stroke="none" stroke-width="1" fill="none" fill-rule="evenodd">
        <g fill="#4E4E4E">
            <path d="M11.9,12.0504832 C14.9375661,12.0504832 17.4,9.57674824 17.4,6.52524158 C17.4,3.47373492 14.9375661,1 11.9,1 C8.86243388,1 6.4,3.47373492 6.4,6.52524158 C6.4,9.57674824 8.86243388,12.0504832 11.9,12.0504832 Z M11.95,10.3426812 C14.0210678,10.3426812 15.7,8.65604377 15.7,6.57547105 C15.7,4.49489832 14.0210678,2.80826088 11.95,2.80826088 C9.87893219,2.80826088 8.2,4.49489832 8.2,6.57547105 C8.2,8.65604377 9.87893219,10.3426812 11.95,10.3426812 Z M19,20.0871982 C19,16.2034624 15.8659932,13.0550725 12,13.0550725 C8.13400675,13.0550725 5,16.2034624 5,20.0871982 C5,23.9709339 19,23.9709339 19,20.0871982 Z"></path>
        </g>
    </g>
</svg>