<?xml version="1.0" encoding="UTF-8" standalone="no"?>
<svg width="24px" height="24px" viewBox="0 0 24 24" version="1.1" xmlns="http://www.w3.org/2000/svg" xmlns:xlink="http://www.w3.org/1999/xlink">
    <defs></defs>
    <g stroke="none" stroke-width="1" fill="none" fill-rule="evenodd">
        <g fill="#4E4E4E">
            <path d="M1,7.00247329 C1,6.44882258 1.44386482,6 2,6 C2.55228475,6 3,6.45576096 3,7.00247329 L3,16.9975267 C3,17.5511774 2.55613518,18 2,18 C1.44771525,18 1,17.544239 1,16.9975267 L1,7.00247329 Z M5,7.00247329 C5,6.44882258 5.44386482,6 6,6 C6.55228475,6 7,6.45576096 7,7.00247329 L7,16.9975267 C7,17.5511774 6.55613518,18 6,18 C5.44771525,18 5,17.544239 5,16.9975267 L5,7.00247329 Z M9,7.00247329 C9,6.44882258 9.44386482,6 10,6 C10.5522847,6 11,6.45576096 11,7.00247329 L11,16.9975267 C11,17.5511774 10.5561352,18 10,18 C9.44771525,18 9,17.544239 9,16.9975267 L9,7.00247329 Z M13.7647653,20.8726801 C13.3423971,21.2281671 13,21.0586364 13,20.5208272 L13,3.9955192 C13,3.44570913 13.3412703,3.28723089 13.7647653,3.6436663 L23.2352347,11.6145069 C23.6576029,11.969994 23.6587297,12.5454041 23.2352347,12.9018395 L13.7647653,20.8726801 Z"></path>
        </g>
    </g>
</svg>