<?xml version="1.0" encoding="UTF-8" standalone="no"?>
<svg width="24px" height="24px" viewBox="0 0 24 24" version="1.1" xmlns="http://www.w3.org/2000/svg" xmlns:xlink="http://www.w3.org/1999/xlink">
    <defs></defs>
    <g stroke="none" stroke-width="1" fill="none" fill-rule="evenodd">
        <g fill="#4E4E4E">
            <path d="M7.5,24 C11.6421356,24 15,20.6421356 15,16.5 C15,12.3578644 11.6421356,9 7.5,9 C3.35786438,9 0,12.3578644 0,16.5 C0,20.6421356 3.35786438,24 7.5,24 Z M7.5,22 C10.5375661,22 13,19.5375661 13,16.5 C13,13.4624339 10.5375661,11 7.5,11 C4.46243388,11 2,13.4624339 2,16.5 C2,19.5375661 4.46243388,22 7.5,22 Z M17.5,11 C20.5375661,11 23,8.53756612 23,5.5 C23,2.46243388 20.5375661,0 17.5,0 C14.4624339,0 12,2.46243388 12,5.5 C12,8.53756612 14.4624339,11 17.5,11 Z M17.5,9 C19.4329966,9 21,7.43299662 21,5.5 C21,3.56700338 19.4329966,2 17.5,2 C15.5670034,2 14,3.56700338 14,5.5 C14,7.43299662 15.5670034,9 17.5,9 Z"></path>
        </g>
    </g>
</svg>