<?xml version="1.0" encoding="UTF-8" standalone="no"?>
<svg width="24px" height="24px" viewBox="0 0 24 24" version="1.1" xmlns="http://www.w3.org/2000/svg" xmlns:xlink="http://www.w3.org/1999/xlink">
    <defs></defs>
    <g stroke="none" stroke-width="1" fill="none" fill-rule="evenodd">
        <g fill="#4E4E4E">
            <path d="M3.60273603,10.5574446 L3.72475091,10.6968902 C4.08864048,11.112764 4.67060986,11.0966919 5.01458369,10.6733395 L5.13142673,10.5295326 L11.4728837,3.28215323 C11.836587,2.86649236 11.786937,2.24963477 11.3553127,1.89894002 C10.9266768,1.55067333 10.2803736,1.59302899 9.90437036,2.00156677 L4.38363123,7.99999989 L1.77078466,5.00123939 C1.40467773,4.58105896 0.773847102,4.53272245 0.355312728,4.89894002 C-0.0603239034,5.26262208 -0.122327767,5.90111488 0.227736033,6.33869463 L3.60273603,10.5574446 Z M22.9931545,22 C23.5492199,22 24,21.5561352 24,21 C24,20.4477153 23.5500512,20 22.9931545,20 L11.0068455,20 C10.4507801,20 10,20.4438648 10,21 C10,21.5522847 10.4499488,22 11.0068455,22 L22.9931545,22 Z"></path>
            <path d="M13.8568126,4.69918836 L13.7847634,0.448280988 L10.2492295,0.448280988 L10.2492295,4.69918836 L13.8568126,4.69918836 Z M13.8911835,6.72707019 L14.1383167,21.3079316 L12.0464337,23.4292504 L10.2492295,21.6614835 L10.2492295,6.72707019 L13.8911835,6.72707019 Z M8.54643369,-0.379317666 C8.54643369,-0.934440859 8.98431504,-1.38445712 9.54936302,-1.38445712 L14.5435044,-1.38445713 C15.0974069,-1.38445713 15.553297,-0.931168672 15.5614295,-0.394059312 L15.9060838,22.3685908 L12.730315,25.5443599 C12.33636,25.9383149 11.696715,25.9314012 11.3146762,25.5422105 L8.54643369,22.7221446 L8.54643369,-0.379317666 Z" transform="translate(12.226259, 12.226259) rotate(-315.000000) translate(-12.226259, -12.226259) "></path>
        </g>
    </g>
</svg>