<?xml version="1.0" encoding="UTF-8" standalone="no"?>
<svg width="24px" height="24px" viewBox="0 0 24 24" version="1.1" xmlns="http://www.w3.org/2000/svg" xmlns:xlink="http://www.w3.org/1999/xlink">
    <defs></defs>
    <g stroke="none" stroke-width="1" fill="none" fill-rule="evenodd">
        <g fill="#FFFFFF">
            <path d="M1,2.00307055 C1,1.44908998 1.44994876,1 2.00684547,1 L13.9931545,1 C14.5492199,1 15,1.43891776 15,2.00307055 L15,22.9969294 C15,23.55091 14.6992188,23.6691406 14.3288106,23.2616916 L8,16.3 L1.67118943,23.2616916 C1.30050174,23.6694481 1,23.5610822 1,22.9969294 L1,2.00307055 Z M3,3 L13,3 L13,19 L8,13.5 L3,19 L3,3 Z M16,7 C16,6.44771525 16.4530363,6 16.9970301,6 L23.0029699,6 C23.5536144,6 24,6.44386482 24,7 C24,7.55228475 23.5469637,8 23.0029699,8 L16.9970301,8 C16.4463856,8 16,7.55613518 16,7 Z M16,12 C16,11.4477153 16.4530363,11 16.9970301,11 L23.0029699,11 C23.5536144,11 24,11.4438648 24,12 C24,12.5522847 23.5469637,13 23.0029699,13 L16.9970301,13 C16.4463856,13 16,12.5561352 16,12 Z M16,17 C16,16.4477153 16.4530363,16 16.9970301,16 L23.0029699,16 C23.5536144,16 24,16.4438648 24,17 C24,17.5522847 23.5469637,18 23.0029699,18 L16.9970301,18 C16.4463856,18 16,17.5561352 16,17 Z"></path>
        </g>
    </g>
</svg>