<?xml version="1.0" encoding="UTF-8" standalone="no"?>
<svg width="24px" height="24px" viewBox="0 0 24 24" version="1.1" xmlns="http://www.w3.org/2000/svg" xmlns:xlink="http://www.w3.org/1999/xlink">
    <defs></defs>
    <g stroke="none" stroke-width="1" fill="none" fill-rule="evenodd">
        <g fill="#4E4E4E">
            <path d="M13,12 L13,4.99539757 C13,4.4556644 12.5522847,4 12,4 C11.4438648,4 11,4.44565467 11,4.99539757 L11,13.0046024 C11,13.2739853 11.1115279,13.5224262 11.2919208,13.7037251 C11.4738249,13.8896448 11.7224669,14 11.9970301,14 L18.0029699,14 C18.5469637,14 19,13.5522847 19,13 C19,12.4438648 18.5536144,12 18.0029699,12 L13,12 Z M12,24 C18.627417,24 24,18.627417 24,12 C24,5.372583 18.627417,0 12,0 C5.372583,0 0,5.372583 0,12 C0,18.627417 5.372583,24 12,24 Z M12,22 C17.5228475,22 22,17.5228475 22,12 C22,6.4771525 17.5228475,2 12,2 C6.4771525,2 2,6.4771525 2,12 C2,17.5228475 6.4771525,22 12,22 Z"></path>
        </g>
    </g>
</svg>