<?xml version="1.0" encoding="UTF-8" standalone="no"?>
<svg width="24px" height="24px" viewBox="0 0 24 24" version="1.1" xmlns="http://www.w3.org/2000/svg" xmlns:xlink="http://www.w3.org/1999/xlink">
    <defs></defs>
    <g stroke="none" stroke-width="1" fill="none" fill-rule="evenodd">
        <g fill="#4E4E4E">
            <path d="M13,11 L13,2.00246167 C13,1.43945834 12.5522847,1 12,1 C11.4438648,1 11,1.44881738 11,2.00246167 L11,11 L2.00246167,11 C1.43945834,11 1,11.4477153 1,12 C1,12.5561352 1.44881738,13 2.00246167,13 L11,13 L11,21.9975383 C11,22.5605417 11.4477153,23 12,23 C12.5561352,23 13,22.5511826 13,21.9975383 L13,13 L21.9975383,13 C22.5605417,13 23,12.5522847 23,12 C23,11.4438648 22.5511826,11 21.9975383,11 L13,11 Z" transform="translate(12.000000, 12.000000) rotate(-315.000000) translate(-12.000000, -12.000000) "></path>
        </g>
    </g>
</svg>