<?xml version="1.0" encoding="UTF-8" standalone="no"?>
<svg width="24px" height="24px" viewBox="0 0 24 24" version="1.1" xmlns="http://www.w3.org/2000/svg" xmlns:xlink="http://www.w3.org/1999/xlink">
    <defs></defs>
    <g stroke="none" stroke-width="1" fill="none" fill-rule="evenodd">
        <g fill="#FFFFFF">
            <path d="M18.8380623,9 L14.7234101,12.8740872 C14.3255931,13.2486457 14.3337579,13.8583948 14.7454691,14.232401 C15.1600507,14.6090147 15.8203022,14.6016919 16.2265933,14.221869 L22.1458486,8.68822999 C22.5544042,8.30629015 22.5521396,7.69259271 22.1458486,7.31276989 L16.2265933,1.77913084 C15.8180377,1.397191 15.1571803,1.39459273 14.7454691,1.76859893 C14.3308875,2.14521263 14.3238817,2.7507429 14.7234101,3.12691267 L18.8370003,7 L2.99339768,7 C2.44494629,7 2,7.44771525 2,8 C2,8.55613518 2.44475929,9 2.99339768,9 L18.8380623,9 Z"></path>
            <rect x="2" y="7" width="2" height="15" rx="1"></rect>
            <rect x="2" y="20" width="20" height="2" rx="1"></rect>
        </g>
    </g>
</svg>