<?xml version="1.0" encoding="UTF-8" standalone="no"?>
<svg width="24px" height="24px" viewBox="0 0 24 24" version="1.1" xmlns="http://www.w3.org/2000/svg" xmlns:xlink="http://www.w3.org/1999/xlink">
    <defs></defs>
    <g stroke="none" stroke-width="1" fill="none" fill-rule="evenodd">
        <g fill="#D478CB">
            <path d="M16.5057658,10 L12.7088582,13.7719923 C12.316953,14.1613259 12.3240554,14.786805 12.7237981,15.169957 L12.6906496,15.1381844 C13.0863897,15.5175 13.7327175,15.5180045 14.1253233,15.1307424 L19.7149747,9.61717113 C20.1063657,9.23110738 20.1075805,8.60203329 19.7149747,8.21477126 L14.1253233,2.70119994 C13.7339323,2.31513618 13.0903923,2.31060605 12.6906496,2.69375802 L12.7237981,2.66198537 C12.3280579,3.04130096 12.3173666,3.67102747 12.7088582,4.05995009 L16.6749335,8 L5.00684547,8 C4.44994876,8 4,8.44771525 4,9 C4,9.55613518 4.45078007,10 5.00684547,10 L16.5057658,10 L16.5057658,10 Z M6,22 C7.1045695,22 8,21.1045695 8,20 C8,18.8954305 7.1045695,18 6,18 C4.8954305,18 4,18.8954305 4,20 C4,21.1045695 4.8954305,22 6,22 Z M12,22 C13.1045695,22 14,21.1045695 14,20 C14,18.8954305 13.1045695,18 12,18 C10.8954305,18 10,18.8954305 10,20 C10,21.1045695 10.8954305,22 12,22 Z M18,22 C19.1045695,22 20,21.1045695 20,20 C20,18.8954305 19.1045695,18 18,18 C16.8954305,18 16,18.8954305 16,20 C16,21.1045695 16.8954305,22 18,22 Z"></path>
        </g>
    </g>
</svg>