<?xml version="1.0" encoding="UTF-8" standalone="no"?>
<svg width="24px" height="24px" viewBox="0 0 24 24" version="1.1" xmlns="http://www.w3.org/2000/svg" xmlns:xlink="http://www.w3.org/1999/xlink">
    <defs></defs>
    <g stroke="none" stroke-width="1" fill="none" fill-rule="evenodd">
        <g transform="translate(-329.000000, -72.000000)">
            <g transform="translate(326.000000, 69.000000)">
                <path d="M3,4.00069463 C3,3.44802625 3.44746922,3 4.00069463,3 L25.9993054,3 C26.5519738,3 27,3.44746922 27,4.00069463 L27,25.9993054 C27,26.5519738 26.5525308,27 25.9993054,27 L4.00069463,27 C3.44802625,27 3,26.5525308 3,25.9993054 L3,4.00069463 Z M5,5 L25,5 L25,25 L5,25 L5,5 Z" fill="#D5D5D5"></path>
                <path d="M15.9748737,19.2072504 L15.9748737,15.9895924 L15.9748737,15.9895924 L23.9749135,15.9895924 C24.5201648,15.9895924 24.9748737,15.5418771 24.9748737,14.9895924 C24.9748737,14.4334572 24.5271763,13.9895924 23.9749135,13.9895924 L15.9748737,13.9895924 L15.9748737,5.98955256 C15.9748737,5.44430129 15.5271585,4.98959236 14.9748737,4.98959236 C14.4187386,4.98959236 13.9748737,5.43728979 13.9748737,5.98955256 L13.9748737,13.9895924 L10.804168,13.9895924 L10.804168,13.9895924 C10.3923316,12.8244 9.28109256,11.9895924 7.97487373,11.9895924 C6.31801948,11.9895924 4.97487373,13.3327381 4.97487373,14.9895924 C4.97487373,16.6464466 6.31801948,17.9895924 7.97487373,17.9895924 C9.28109256,17.9895924 10.3923316,17.1547847 10.804168,15.9895924 L13.9748737,15.9895924 L13.9748737,19.257506 C12.8469537,19.6887348 12.0459415,20.7811543 12.0459415,22.0606602 C12.0459415,23.7175144 13.3890873,25.0606602 15.0459415,25.0606602 C16.7027958,25.0606602 18.0459415,23.7175144 18.0459415,22.0606602 C18.0459415,20.7280347 17.1770396,19.5983522 15.9748737,19.2072504 L15.9748737,19.2072504 Z M7.97487373,16.4895924 C8.80330086,16.4895924 9.47487373,15.8180195 9.47487373,14.9895924 C9.47487373,14.1611652 8.80330086,13.4895924 7.97487373,13.4895924 C7.14644661,13.4895924 6.47487373,14.1611652 6.47487373,14.9895924 C6.47487373,15.8180195 7.14644661,16.4895924 7.97487373,16.4895924 Z M15.0459415,23.5606602 C15.8743687,23.5606602 16.5459415,22.8890873 16.5459415,22.0606602 C16.5459415,21.232233 15.8743687,20.5606602 15.0459415,20.5606602 C14.2175144,20.5606602 13.5459415,21.232233 13.5459415,22.0606602 C13.5459415,22.8890873 14.2175144,23.5606602 15.0459415,23.5606602 Z" fill="#C36060" transform="translate(14.974874, 15.025126) rotate(-315.000000) translate(-14.974874, -15.025126) "></path>
            </g>
        </g>
    </g>
</svg>