<?xml version="1.0" encoding="UTF-8" standalone="no"?>
<svg width="24px" height="24px" viewBox="0 0 24 24" version="1.1" xmlns="http://www.w3.org/2000/svg" xmlns:xlink="http://www.w3.org/1999/xlink">
    <defs></defs>
    <g stroke="none" stroke-width="1" fill="none" fill-rule="evenodd">
        <g fill="#4E4E4E">
            <path d="M5.14246696,24.1170452 C2.27986922,24.1170452 -0.0418332067,21.7944788 -0.0418332067,18.9327451 L-0.0418332067,18.9327451 C-0.0401051066,16.6274596 1.45556549,14.699764 3.52410126,14.0180285 L3.52410126,14.0180285 C3.59581741,12.0652755 5.19776616,10.5073933 7.16693617,10.5056652 L7.16693617,10.5056652 C7.79682864,10.5056652 8.38956696,10.6689706 8.90367673,10.952379 L8.90367673,10.952379 C9.99842811,9.13441777 11.9883353,7.91351508 14.2676993,7.91351508 L14.2676993,7.91351508 C17.6781048,7.91524318 20.4508413,10.6387289 20.5303339,14.0292612 L20.5303339,14.0292612 C22.570356,14.7248214 24.0401051,16.650789 24.0418332,18.9258327 L24.0418332,18.9258327 C24.0418332,21.7875664 21.7192667,24.1101328 18.857533,24.1101328 L18.857533,24.1101328 L5.14246696,24.1101328 L5.14246696,24.1170452 L5.14246696,24.1170452 Z M19.4874255,15.5404847 C19.0450319,15.4575359 18.7408863,15.0548886 18.7840888,14.6090387 C18.8022338,14.4604221 18.8065541,14.3187179 18.8065541,14.1787418 C18.8005057,11.6747249 16.7734444,9.64766349 14.2694274,9.64420729 C12.3261789,9.64247919 10.6732512,10.8694302 10.0260777,12.5906179 C9.92066361,12.868842 9.67613745,13.077078 9.37976829,13.1341053 C9.08599128,13.1911326 8.78098162,13.0891747 8.57879392,12.8671139 C8.21934911,12.4756992 7.72770464,12.2363574 7.16780022,12.2363574 C6.10933894,12.2380855 5.25306536,13.093495 5.24960916,14.1519563 C5.24960916,14.2703311 5.26429801,14.3912981 5.28849141,14.5191775 C5.33082986,14.7498789 5.28157901,14.9857646 5.14765126,15.1775837 C5.0137235,15.3711309 4.8080796,15.4981462 4.57997039,15.5353004 C2.93913939,15.804884 1.6836747,17.2201979 1.6854028,18.931017 C1.688859,20.8397035 3.23378045,22.3837609 5.14246696,22.3889452 L18.8592611,22.3889452 C20.7679477,22.3837609 22.310277,20.8397035 22.3137332,18.931017 C22.3154613,17.2400711 21.0936945,15.8368538 19.4874255,15.5404847 Z M3,8 C3,7.44771525 3.45097518,7 3.99077797,7 L8.00922203,7 C8.55641359,7 9,7.44386482 9,8 C9,8.55228475 8.54902482,9 8.00922203,9 L3.99077797,9 C3.44358641,9 3,8.55613518 3,8 Z M3,4 C3,3.44771525 3.45470893,3 3.9999602,3 L19.0000398,3 C19.5523026,3 20,3.44386482 20,4 C20,4.55228475 19.5452911,5 19.0000398,5 L3.9999602,5 C3.44769743,5 3,4.55613518 3,4 Z"></path>
        </g>
    </g>
</svg>