<?xml version="1.0" encoding="UTF-8" standalone="no"?>
<svg width="24px" height="24px" viewBox="0 0 24 24" version="1.1" xmlns="http://www.w3.org/2000/svg" xmlns:xlink="http://www.w3.org/1999/xlink">
    <defs></defs>
    <g stroke="none" stroke-width="1" fill="none" fill-rule="evenodd">
        <g fill="#4E4E4E">
            <path d="M15,8 C15,7.44771525 15.4378814,7 16.0029293,7 L20.9970707,7 C21.5509732,7 22,7.44386482 22,8 C22,8.55228475 21.5621186,9 20.9970707,9 L16.0029293,9 C15.4490268,9 15,8.55613518 15,8 Z M15,11 C15,10.4477153 15.4378814,10 16.0029293,10 L20.9970707,10 C21.5509732,10 22,10.4438648 22,11 C22,11.5522847 21.5621186,12 20.9970707,12 L16.0029293,12 C15.4490268,12 15,11.5561352 15,11 Z M15,14 C15,13.4477153 15.4378814,13 16.0029293,13 L20.9970707,13 C21.5509732,13 22,13.4438648 22,14 C22,14.5522847 21.5621186,15 20.9970707,15 L16.0029293,15 C15.4490268,15 15,14.5561352 15,14 Z M7.9,11.9644661 C10.9375661,11.9644661 13.4,9.50203222 13.4,6.46446609 C13.4,3.42689997 10.9375661,0.964466094 7.9,0.964466094 C4.86243388,0.964466094 2.4,3.42689997 2.4,6.46446609 C2.4,9.50203222 4.86243388,11.9644661 7.9,11.9644661 Z M7.95,10.2644661 C10.0210678,10.2644661 11.7,8.58553391 11.7,6.51446609 C11.7,4.44339828 10.0210678,2.76446609 7.95,2.76446609 C5.87893219,2.76446609 4.2,4.44339828 4.2,6.51446609 C4.2,8.58553391 5.87893219,10.2644661 7.95,10.2644661 Z M15,19.9644661 C15,16.0984728 11.8659932,12.9644661 8,12.9644661 C4.13400675,12.9644661 1,16.0984728 1,19.9644661 C1,23.8304593 15,23.8304593 15,19.9644661 Z"></path>
        </g>
    </g>
</svg>