<?xml version="1.0" encoding="UTF-8" standalone="no"?>
<svg width="24px" height="24px" viewBox="0 0 24 24" version="1.1" xmlns="http://www.w3.org/2000/svg" xmlns:xlink="http://www.w3.org/1999/xlink">
    <defs></defs>
    <g stroke="none" stroke-width="1" fill="none" fill-rule="evenodd">
        <g fill="#4E4E4E">
            <path d="M9.55381909,13.0319673 C9.20192939,12.4364541 9,11.7418086 9,11 C9,8.790861 10.790861,7 13,7 C15.209139,7 17,8.790861 17,11 C17,13.209139 15.209139,15 13,15 C12.2581914,15 11.5635459,14.7980706 10.9680327,14.4461809 L8.28637226,17.1278413 C7.89944939,17.5147642 7.27192661,17.5145673 6.87867966,17.1213203 C6.48815536,16.7307961 6.49046048,16.095326 6.8721587,15.7136277 L9.55381909,13.0319673 Z M13,0.041073777 C18.8160893,0.520891358 23.4561124,5.148367 23.9554645,10.9588962 L23.9554645,10.9588962 L21.9464583,10.9588962 C21.4597428,6.2538061 17.710707,2.51708272 13,2.04937524 L13,0.041073777 L13,0.041073777 Z M0,12 C0,16.1365526 2.09301168,19.7842562 5.27778476,21.9418605 L6.28097708,20.2042804 C3.69295662,18.39686 2,15.3961356 2,12 C2,6.8146519 5.94667731,2.55109967 11,2.04937524 L11,0.041073777 C4.84046948,0.549224678 0,5.70933623 0,12 Z M23.9622466,12.9588962 C23.4737152,19.1379825 18.3046501,24 12,24 C10.2239514,24 8.53801987,23.6141627 7.0214541,22.9217366 L8.0271931,21.1797455 C9.2449353,21.7074794 10.5883067,22 12,22 C17.199399,22 21.4719998,18.0319048 21.9546205,12.9588962 L23.9622466,12.9588962 L23.9622466,12.9588962 Z M13,13 C14.1045695,13 15,12.1045695 15,11 C15,9.8954305 14.1045695,9 13,9 C11.8954305,9 11,9.8954305 11,11 C11,12.1045695 11.8954305,13 13,13 Z"></path>
        </g>
    </g>
</svg>