<?xml version="1.0" encoding="UTF-8" standalone="no"?>
<svg width="24px" height="24px" viewBox="0 0 24 24" version="1.1" xmlns="http://www.w3.org/2000/svg" xmlns:xlink="http://www.w3.org/1999/xlink">
    <defs></defs>
    <g stroke="none" stroke-width="1" fill="none" fill-rule="evenodd">
        <g fill="#4E4E4E">
            <path d="M16.5,12.5001831 C16.499901,14.9853803 14.4852203,17 12,17 C9.51471863,17 7.5,14.9852814 7.5,12.5 C7.5,10.0147186 9.51471863,8 12,8 C12.6136254,8 13.1985647,8.12282025 13.7315756,8.3452187 C12.9944961,8.78004155 12.5,9.58227289 12.5,10.5 C12.5,11.8807119 13.6192881,13 15,13 C15.562803,13 16.0821697,12.8140276 16.5,12.5001831 Z M12,22 C18.627417,22 24,17.7467051 24,12.5 C24,7.25329488 18.627417,3 12,3 C5.372583,3 0,7.25329488 0,12.5 C0,17.7467051 5.372583,22 12,22 Z M12,20 C17.5228475,20 22,16.6421356 22,12.5 C22,8.35786438 17.5228475,5 12,5 C6.4771525,5 2,8.35786438 2,12.5 C2,16.6421356 6.4771525,20 12,20 Z"></path>
        </g>
    </g>
</svg>