<?xml version="1.0" encoding="UTF-8" standalone="no"?>
<svg width="24px" height="24px" viewBox="0 0 24 24" version="1.1" xmlns="http://www.w3.org/2000/svg" xmlns:xlink="http://www.w3.org/1999/xlink">
    <defs></defs>
    <g stroke="none" stroke-width="1" fill="none" fill-rule="evenodd">
        <g fill="#FFFFFF">
            <path d="M2,5 C2,4.44771525 2.45530558,4 2.99180311,4 L21.0081969,4 C21.5559546,4 22,4.44386482 22,5 C22,5.55228475 21.5446944,6 21.0081969,6 L2.99180311,6 C2.44404538,6 2,5.55613518 2,5 Z M2,12 C2,11.4477153 2.45530558,11 2.99180311,11 L21.0081969,11 C21.5559546,11 22,11.4438648 22,12 C22,12.5522847 21.5446944,13 21.0081969,13 L2.99180311,13 C2.44404538,13 2,12.5561352 2,12 Z M2,19 C2,18.4477153 2.45530558,18 2.99180311,18 L21.0081969,18 C21.5559546,18 22,18.4438648 22,19 C22,19.5522847 21.5446944,20 21.0081969,20 L2.99180311,20 C2.44404538,20 2,19.5561352 2,19 Z"></path>
        </g>
    </g>
</svg>