<?xml version="1.0" encoding="UTF-8" standalone="no"?>
<svg width="24px" height="24px" viewBox="0 0 24 24" version="1.1" xmlns="http://www.w3.org/2000/svg" xmlns:xlink="http://www.w3.org/1999/xlink">
    <defs></defs>
    <g stroke="none" stroke-width="1" fill="none" fill-rule="evenodd">
        <g fill="#4E4E4E">
            <path d="M17,17 L15,17 L15,17 L15,13.9998075 C15,13.4437166 14.5522847,13 14,13 C13.4438648,13 13,13.4476291 13,13.9998075 L13,17 L10.9999959,17 C10.9999986,16.9990239 11,16.9980474 11,16.9970707 L11,12.0029293 C11,11.4378814 10.5522847,11 10,11 C9.44386482,11 9,11.4490268 9,12.0029293 L9,16.9970707 C9,16.9980475 9.00000134,16.9990239 9.00000401,17 L9.00000401,17 L7,17 L7,17 L7,13.9998075 C7,13.4437166 6.55228475,13 6,13 C5.44386482,13 5,13.4476291 5,13.9998075 L5,17 L2,17 L2,7 L22,7 L22,17 L19,17 L19,13.9998075 C19,13.4437166 18.5522847,13 18,13 C17.4438648,13 17,13.4476291 17,13.9998075 L17,17 Z M0,6.00684547 C0,5.45078007 0.44746922,5 1.00069463,5 L22.9993054,5 C23.5519738,5 24,5.44994876 24,6.00684547 L24,17.9931545 C24,18.5492199 23.5525308,19 22.9993054,19 L1.00069463,19 C0.448026248,19 0,18.5500512 0,17.9931545 L0,6.00684547 Z"></path>
        </g>
    </g>
</svg>