<?xml version="1.0" encoding="UTF-8" standalone="no"?>
<svg width="24px" height="24px" viewBox="0 0 24 24" version="1.1" xmlns="http://www.w3.org/2000/svg" xmlns:xlink="http://www.w3.org/1999/xlink">
    <defs></defs>
    <g stroke="none" stroke-width="1" fill="none" fill-rule="evenodd">
        <g fill="#4E4E4E">
            <path d="M12,24 C18.627417,24 24,18.627417 24,12 C24,5.372583 18.627417,0 12,0 C5.372583,0 0,5.372583 0,12 C0,18.627417 5.372583,24 12,24 L12,24 Z M12,22 C6.4771525,22 2,17.5228475 2,12 C2,6.4771525 6.4771525,2 12,2 C17.5228475,2 22,6.4771525 22,12 C22,17.5228475 17.5228475,22 12,22 Z M14,18 C14.5522847,18 15,18.4438648 15,19 C15,19.5522848 14.5490248,20 14.009222,20 L9.99077797,20 C9.44358641,20 9,19.5561352 9,19 C9,18.4477153 9.44386482,18 10,18 L11,18 L11,12 L10,12 C9.44771525,12 9,11.5561352 9,11 C9,10.4477153 9.44335318,10 10.0093689,10 L11.9906311,10 C12.5480902,10 13,10.4530363 13,10.9970301 L13,18 L14,18 Z M11.5013047,8.49999998 C12.6076321,8.49999998 13.5,7.60502282 13.5,6.50130463 C13.5,5.39628181 12.6063275,4.50000002 11.5013047,4.50000002 C10.3936726,4.50000002 9.50000007,5.39628181 9.50000007,6.50130463 C9.50000007,7.60502282 10.3949772,8.49999998 11.5013047,8.49999998 L11.5013047,8.49999998 Z"></path>
        </g>
    </g>
</svg>