<svg width="24" height="24" viewBox="0 0 24 24" xmlns="http://www.w3.org/2000/svg"><path d="M13 20.499l2.773-2.796c.389-.392 1.013-.384 1.396.016l-.032-.033c.379.396.379 1.043-.008 1.437l-4.511 4.585c-.384.39-1.016.394-1.403 0l-4.511-4.585c-.384-.39-.391-1.037-.008-1.437l-.032.033c.379-.396 1.008-.407 1.396-.016l2.941 2.966v-9.666c0-.553.444-1.002 1-1.002.552 0 1 .456 1 1.002v9.496zm2-6.503h7.999c.553 0 1.001-.451 1.001-1.007v-11.982c0-.557-.448-1.007-1.001-1.007h-21.999c-.553 0-1.001.451-1.001 1.007v11.982c0 .557.448 1.007 1.001 1.007h7.999v-1.995h-7v-10.001h20v10.001h-7v1.995z" fill="#FFA885"/></svg>