<?xml version="1.0" encoding="UTF-8" standalone="no"?>
<svg width="24px" height="24px" viewBox="0 0 24 24" version="1.1" xmlns="http://www.w3.org/2000/svg" xmlns:xlink="http://www.w3.org/1999/xlink">
    <defs></defs>
    <g stroke="none" stroke-width="1" fill="none" fill-rule="evenodd">
        <g fill="#4E4E4E">
            <path d="M14.2716122,15.4274337 C14.2716122,14.9242679 13.8446837,14.4973393 13.3415179,14.4973393 L10.0328214,14.4973393 C12.6706301,12.5761607 14.1038903,11.0666633 14.1038903,9.32845408 C14.1038903,7.30054337 12.3809286,6.08074745 10.2157908,6.08074745 C8.9350051,6.08074745 7.22729082,6.62965561 6.73937245,7.40727551 C6.64788776,7.54450255 6.60214541,7.69697704 6.60214541,7.84945153 C6.60214541,8.39835969 7.04432143,8.82528827 7.54748724,8.82528827 C7.77619898,8.82528827 7.97441582,8.76429847 8.17263265,8.62707143 C8.75203571,8.23063776 9.45341837,8.00192602 10.2615332,8.00192602 C11.1001429,8.00192602 11.9082577,8.44410204 11.9082577,9.32845408 C11.9082577,10.5177551 10.6884617,11.6308189 6.89184694,14.4363495 C6.60214541,14.6498138 6.43442347,15.0005051 6.43442347,15.3511964 C6.43442347,15.9610944 6.92234184,16.4032704 7.45600255,16.4032704 L13.3415179,16.4032704 C13.8446837,16.4032704 14.2716122,15.9763418 14.2716122,15.4274337 Z M23.2828546,18.5977398 C23.2828546,17.0729949 21.9410791,16.2648801 20.9042526,16.158148 C22.0325638,15.9599311 23.1303801,15.1213214 23.1303801,13.8405357 C23.1303801,12.1480689 21.666625,11.0807474 19.288023,11.0807474 C17.8852577,11.0807474 16.7874413,11.4924286 15.9488316,12.1633163 C15.7353673,12.3310383 15.6286352,12.5749974 15.6286352,12.8189566 C15.6286352,13.3526173 16.1013061,13.7338036 16.573977,13.7338036 C16.7569464,13.7338036 16.9399158,13.6880612 17.0923903,13.5813291 C17.6870408,13.2001429 18.3579286,13.001926 19.0593112,13.001926 C20.1266327,13.001926 20.9499949,13.3983597 20.9499949,14.2064745 C20.9499949,15.0450842 20.035148,15.3500332 18.7086199,15.2890434 C18.1139694,15.2890434 17.7175357,15.7007245 17.7175357,16.2343852 C17.7175357,16.9205204 18.2816913,17.3017066 19.0745587,17.1949745 C20.4925714,17.1949745 21.1177168,17.5609133 21.1177168,18.3690281 C21.1177168,19.1314005 20.4315816,19.6650612 19.1965383,19.6650612 C18.4951556,19.6650612 17.6870408,19.421102 17.0161531,19.0246684 C16.8484311,18.9179362 16.6654617,18.8721939 16.4824923,18.8721939 C15.9793265,18.8721939 15.4914082,19.283875 15.4914082,19.8327832 C15.4914082,19.9852577 15.5371505,20.1224847 15.6133878,20.2444643 C16.0860587,21.0373316 17.8090204,21.5862398 19.2727755,21.5862398 C21.7123673,21.5862398 23.2828546,20.3511964 23.2828546,18.5977398 Z M4.80294643,2.39202806 C4.80294643,1.70589286 4.22354337,1.15698469 3.53740816,1.15698469 C3.18671684,1.15698469 2.85127296,1.29421173 2.62256122,1.52292347 L0.274454082,3.90152551 C0.0914846939,4.0844949 0,4.31320663 0,4.54191837 C0,5.04508418 0.426928571,5.44151786 0.89959949,5.44151786 C1.11306378,5.44151786 1.32652806,5.36528061 1.49425,5.19755867 L2.63780867,4.0235051 L2.63780867,10.4274337 C2.63780867,11.0068367 3.12572704,11.4947551 3.7051301,11.4947551 C4.31502806,11.4947551 4.80294643,11.0068367 4.80294643,10.4274337 L4.80294643,2.39202806 Z"></path>
        </g>
    </g>
</svg>