<?xml version="1.0" encoding="UTF-8" standalone="no"?>
<svg width="24px" height="24px" viewBox="0 0 24 24" version="1.1" xmlns="http://www.w3.org/2000/svg" xmlns:xlink="http://www.w3.org/1999/xlink">
    <defs></defs>
    <g stroke="none" stroke-width="1" fill="none" fill-rule="evenodd">
        <g fill="#4E4E4E">
            <path d="M13,1 L22.9993054,1 C23.5519738,1 24,1.45530558 24,1.99180311 L24,20.0081969 C24,20.5559546 23.5525308,21 22.9993054,21 L13,21 L13,23.0001925 C13,23.5523709 12.5561352,24 12,24 C11.4477153,24 11,23.5562834 11,23.0001925 L11,21 L1.00069463,21 C0.448026248,21 0,20.5446944 0,20.0081969 L0,1.99180311 C0,1.44404538 0.44746922,1 1.00069463,1 L11,1 L11,0.998956561 C11,0.447248087 11.4438648,0 12,0 C12.5522847,0 13,0.442660332 13,0.998956561 L13,1 Z M2,3 L22,3 L22,19 L2,19 L2,3 Z M9,3 L15,3 L15,4 L9,4 L9,3 Z M4,8 C4,7.44771525 4.44463086,7 5.00087166,7 L18.9991283,7 C19.5518945,7 20,7.44386482 20,8 C20,8.55228475 19.5553691,9 18.9991283,9 L5.00087166,9 C4.4481055,9 4,8.55613518 4,8 Z M4,12 C4,11.4477153 4.44463086,11 5.00087166,11 L18.9991283,11 C19.5518945,11 20,11.4438648 20,12 C20,12.5522847 19.5553691,13 18.9991283,13 L5.00087166,13 C4.4481055,13 4,12.5561352 4,12 Z M4,16 C4,15.4477153 4.44463086,15 5.00087166,15 L18.9991283,15 C19.5518945,15 20,15.4438648 20,16 C20,16.5522847 19.5553691,17 18.9991283,17 L5.00087166,17 C4.4481055,17 4,16.5561352 4,16 Z"></path>
        </g>
    </g>
</svg>