<svg width="25" height="24" viewBox="0 0 25 24" xmlns="http://www.w3.org/2000/svg"><g fill="none"><path d="M2.5 4c0-.552.455-1 .992-1h18.016c.548 0 .992.444.992 1 0 .552-.455 1-.992 1h-18.016c-.548 0-.992-.444-.992-1zm0 4c0-.552.455-1 .992-1h18.016c.548 0 .992.444.992 1 0 .552-.455 1-.992 1h-18.016c-.548 0-.992-.444-.992-1zm0 4c0-.552.445-1 .996-1h9.009c.55 0 .996.444.996 1 0 .552-.445 1-.996 1h-9.009c-.55 0-.996-.444-.996-1z" fill="#6B6B6B"/><path d="M18 16v-3.998c0-.547-.448-1.002-1-1.002-.556 0-1 .449-1 1.002v3.998h-3.998c-.547 0-1.002.448-1.002 1 0 .556.449 1 1.002 1h3.998v3.998c0 .547.448 1.002 1 1.002.556 0 1-.449 1-1.002v-3.998h3.998c.547 0 1.002-.448 1.002-1 0-.556-.449-1-1.002-1h-3.998z" fill="#BA3CBF"/></g></svg>