<?xml version="1.0" encoding="UTF-8" standalone="no"?>
<svg width="35px" height="19px" viewBox="0 0 35 19" version="1.1" xmlns="http://www.w3.org/2000/svg" xmlns:xlink="http://www.w3.org/1999/xlink">
    <defs></defs>
    <g stroke="none" stroke-width="1" fill="none" fill-rule="evenodd">
        <g transform="translate(-83.000000, -81.000000)">
            <g transform="translate(83.000000, 81.000000)">
                <path d="M21.352301,3.51916913 L24.1455075,8.35714459 L24.1455075,8.35714459 L20.9731759,13.851784 C20.7879575,14.1725917 20.6655757,14.5120237 20.6021513,14.8560621 L17.9118542,10.1963307 L20.9319881,4.96530524 C21.1962441,4.50760043 21.3325933,4.01198492 21.352301,3.51916913 Z M18.7858951,0.289170293 C17.896541,-0.101885162 16.8385512,-0.0767686833 15.9309614,0.447228573 C14.7700041,1.11750757 14.1931318,2.41622374 14.3862749,3.666192 L15.4601707,1.80614998 C16.1487792,0.61344499 17.5033175,0.0435086062 18.7858951,0.289170293 Z M24.851124,18.5739515 C24.6119202,18.5949244 24.3724313,18.5883356 24.1373192,18.5553937 C24.1433284,18.55458 24.1493348,18.5537492 24.1553384,18.5529012 C23.7660247,18.4977023 23.3806682,18.368566 23.0196907,18.1601556 C21.50869,17.2877789 20.9866867,15.3631112 21.8592519,13.851784 L28.9347535,1.59665571 C29.8048615,0.0895844108 31.7382061,-0.423162165 33.2461321,0.447439361 C34.7571328,1.319816 35.2791361,3.24448371 34.4065709,4.75581097 L27.3310693,17.0109392 C26.7933598,17.9422795 25.8496006,18.4938876 24.851124,18.5739515 L24.851124,18.5739515 Z" fill="#FDFDFD"></path>
                <path d="M10.6739088,18.5739515 C10.434705,18.5949244 10.1952161,18.5883356 9.96010396,18.5553937 C9.96611318,18.55458 9.97211964,18.5537492 9.97812326,18.5529012 C9.5888095,18.4977023 9.20345297,18.368566 8.84247547,18.1601556 C7.33147481,17.2877789 6.80947149,15.3631112 7.68203669,13.851784 L14.7575383,1.59665571 C15.6276463,0.0895844108 17.5609909,-0.423162165 19.0689169,0.447439361 C20.5799176,1.319816 21.1019209,3.24448371 20.2293557,4.75581097 L13.1538541,17.0109392 C12.6161446,17.9422795 11.6723854,18.4938876 10.6739088,18.5739515 Z M9.96829227,8.35714459 L6.06506907,1.59656371 C5.1924831,0.0852004739 3.26469533,-0.42511833 1.75374617,0.447228573 C0.245871491,1.31780043 -0.276690585,3.24850413 0.593438146,4.7556113 L6.42493613,14.8560621 C6.48836048,14.5120237 6.61074233,14.1725917 6.79596075,13.851784 L9.96829227,8.35714459 L9.96829227,8.35714459 Z" fill="#EE7132"></path>
            </g>
        </g>
    </g>
</svg>