<?xml version="1.0" encoding="UTF-8" standalone="no"?>
<svg width="24px" height="24px" viewBox="0 0 24 24" version="1.1" xmlns="http://www.w3.org/2000/svg" xmlns:xlink="http://www.w3.org/1999/xlink">
    <defs></defs>
    <g stroke="none" stroke-width="1" fill="none" fill-rule="evenodd">
        <g fill="#4E4E4E">
            <path d="M9.5,17 C13.6421356,17 17,13.6421356 17,9.5 C17,5.35786438 13.6421356,2 9.5,2 C5.35786438,2 2,5.35786438 2,9.5 C2,13.6421356 5.35786438,17 9.5,17 Z M9.5,15 C12.5375661,15 15,12.5375661 15,9.5 C15,6.46243388 12.5375661,4 9.5,4 C6.46243388,4 4,6.46243388 4,9.5 C4,12.5375661 6.46243388,15 9.5,15 Z"></path>
            <path d="M13.0773171,15.1964723 L14.5775761,13.6962134 L21.60483,20.7234673 C22.0164266,21.1350639 22.0171354,21.8016849 21.599962,22.2188583 L21.599962,22.2188583 C21.1856769,22.6331433 20.5158573,22.6350125 20.1045711,22.2237263 L13.0773171,15.1964723 Z"></path>
        </g>
    </g>
</svg>