<?xml version="1.0" encoding="UTF-8" standalone="no"?>
<svg width="24px" height="24px" viewBox="0 0 24 24" version="1.1" xmlns="http://www.w3.org/2000/svg" xmlns:xlink="http://www.w3.org/1999/xlink">
    <defs></defs>
    <g stroke="none" stroke-width="1" fill="none" fill-rule="evenodd">
        <g fill="#D478CB">
            <path d="M9.5,17 C13.6421356,17 17,13.6421356 17,9.5 C17,5.35786438 13.6421356,2 9.5,2 C5.35786438,2 2,5.35786438 2,9.5 C2,13.6421356 5.35786438,17 9.5,17 Z M9.5,15 C12.5375661,15 15,12.5375661 15,9.5 C15,6.46243388 12.5375661,4 9.5,4 C6.46243388,4 4,6.46243388 4,9.5 C4,12.5375661 6.46243388,15 9.5,15 Z"></path>
            <path d="M12.5065511,15.1257063 L14.00681,13.6254473 L20.1631869,19.7818242 C20.5787954,20.1974327 20.5827565,20.867306 20.1655831,21.2844794 L20.1655831,21.2844794 C19.751298,21.6987644 19.0822229,21.7013781 18.662928,21.2820832 L12.5065511,15.1257063 Z"></path>
        </g>
    </g>
</svg>