<?xml version="1.0" encoding="UTF-8" standalone="no"?>
<svg width="24px" height="24px" viewBox="0 0 24 24" version="1.1" xmlns="http://www.w3.org/2000/svg" xmlns:xlink="http://www.w3.org/1999/xlink">
    <defs></defs>
    <g stroke="none" stroke-width="1" fill="none" fill-rule="evenodd">
        <g fill="#68B4F6">
            <path d="M2,16.0913637 L7,9 L9,9 L15,9 L17,9 L22,16.0913637 L22,21.9999998 L2,21.9999998 L2,16.0913637 Z M0,15.1726295 L0,15.5 L0,23 L0,24 L1,24 L23,24 L24,24 L24,23 L24,15.5 L24,15.1726295 L23.806405,14.9086363 L18.306405,7.40863634 L18.0067383,7 L17.5,7 L15,7 L9,7 L6.5,7 L5.99326165,7 L5.693595,7.40863634 L0.193595004,14.9086363 L0,15.1726295 Z M9,7 L15,7 L15,9 L9,9 L9,7 Z"></path>
            <path d="M18.2161665,8.62788339 L3.37838889,8.62788339 C2.8220609,8.62788339 2.3707245,9.07559864 2.3707245,9.62788339 C2.3707245,10.1840186 2.82187122,10.6278834 3.37838889,10.6278834 L18.2161665,10.6278834 L15.6785326,13.1655173 C15.2938709,13.550179 15.2901083,14.1871066 15.6806326,14.5776309 C16.0738795,14.9708778 16.7033817,14.9690954 17.0927461,14.5797309 L21.3395869,10.3328902 C21.531573,10.140904 21.6286754,9.88607737 21.6292296,9.63040916 C21.6317077,9.37136967 21.5339229,9.11721262 21.3395869,8.92287662 L17.0927461,4.67603591 C16.7080844,4.29137419 16.0711569,4.28761163 15.6806326,4.67813592 C15.2873856,5.07138288 15.2891681,5.70088499 15.6785326,6.09024948 L18.2161665,8.62788339 Z" transform="translate(12.000000, 9.629275) scale(-1, 1) rotate(-270.000000) translate(-12.000000, -9.629275) "></path>
        </g>
    </g>
</svg>