<?xml version="1.0" encoding="UTF-8" standalone="no"?>
<svg width="24px" height="24px" viewBox="0 0 24 24" version="1.1" xmlns="http://www.w3.org/2000/svg" xmlns:xlink="http://www.w3.org/1999/xlink">
    <defs></defs>
    <g stroke="none" stroke-width="1" fill="none" fill-rule="evenodd">
        <g fill="#4E4E4E">
            <path d="M0,3 C0,2.44771525 0.455760956,2 1.00247329,2 L10.9975267,2 C11.5511774,2 12,2.44386482 12,3 C12,3.55228475 11.544239,4 10.9975267,4 L1.00247329,4 C0.448822582,4 0,3.55613518 0,3 Z M12,21 C12,20.4477153 12.455761,20 13.0024733,20 L22.9975267,20 C23.5511774,20 24,20.4438648 24,21 C24,21.5522847 23.544239,22 22.9975267,22 L13.0024733,22 C12.4488226,22 12,21.5561352 12,21 Z M0,7 C0,6.44771525 0.453036308,6 0.997030139,6 L7.00296986,6 C7.5536144,6 8,6.44386482 8,7 C8,7.55228475 7.54696369,8 7.00296986,8 L0.997030139,8 C0.446385598,8 0,7.55613518 0,7 Z M16,17 C16,16.4477153 16.4530363,16 16.9970301,16 L23.0029699,16 C23.5536144,16 24,16.4438648 24,17 C24,17.5522847 23.5469637,18 23.0029699,18 L16.9970301,18 C16.4463856,18 16,17.5561352 16,17 Z"></path>
            <path d="M13.8568126,4.69918836 L13.7847634,0.448280988 L10.2492295,0.448280988 L10.2492295,4.69918836 L13.8568126,4.69918836 Z M13.8911835,6.72707019 L14.1383167,21.3079316 L12.0464337,23.4292504 L10.2492295,21.6614835 L10.2492295,6.72707019 L13.8911835,6.72707019 Z M8.54643369,-0.379317666 C8.54643369,-0.934440859 8.98431504,-1.38445712 9.54936302,-1.38445712 L14.5435044,-1.38445713 C15.0974069,-1.38445713 15.553297,-0.931168672 15.5614295,-0.394059312 L15.9060838,22.3685908 L12.730315,25.5443599 C12.33636,25.9383149 11.696715,25.9314012 11.3146762,25.5422105 L8.54643369,22.7221446 L8.54643369,-0.379317666 Z" transform="translate(12.226259, 12.226259) rotate(-315.000000) translate(-12.226259, -12.226259) "></path>
        </g>
    </g>
</svg>