<?xml version="1.0" encoding="UTF-8" standalone="no"?>
<svg width="24px" height="24px" viewBox="0 0 24 24" version="1.1" xmlns="http://www.w3.org/2000/svg" xmlns:xlink="http://www.w3.org/1999/xlink">
    <defs></defs>
    <g stroke="none" stroke-width="1" fill="none" fill-rule="evenodd">
        <g fill="#4E4E4E">
            <path d="M12,23 C13.5,22 12,21.25 12,18.5 C12,15.75 23,18.4166667 23,12 C23,5.92486775 18.0751322,1 12,1 C5.92486775,1 1,5.92486775 1,12 C1,18.0751322 5.92486775,23 12,23 Z M5,13 C6.1045695,13 7,12.1045695 7,11 C7,9.8954305 6.1045695,9 5,9 C3.8954305,9 3,9.8954305 3,11 C3,12.1045695 3.8954305,13 5,13 Z M9,8 C10.1045695,8 11,7.1045695 11,6 C11,4.8954305 10.1045695,4 9,4 C7.8954305,4 7,4.8954305 7,6 C7,7.1045695 7.8954305,8 9,8 Z M15,8 C16.1045695,8 17,7.1045695 17,6 C17,4.8954305 16.1045695,4 15,4 C13.8954305,4 13,4.8954305 13,6 C13,7.1045695 13.8954305,8 15,8 Z M19,13 C20.1045695,13 21,12.1045695 21,11 C21,9.8954305 20.1045695,9 19,9 C17.8954305,9 17,9.8954305 17,11 C17,12.1045695 17.8954305,13 19,13 Z"></path>
        </g>
    </g>
</svg>