<?xml version="1.0" encoding="UTF-8" standalone="no"?>
<svg width="24px" height="24px" viewBox="0 0 24 24" version="1.1" xmlns="http://www.w3.org/2000/svg" xmlns:xlink="http://www.w3.org/1999/xlink">
    <defs></defs>
    <g stroke="none" stroke-width="1" fill="none" fill-rule="evenodd">
        <g fill="#3DB75A">
            <path d="M12,24 C18.627417,24 24,18.627417 24,12 C24,5.372583 18.627417,0 12,0 C5.372583,0 0,5.372583 0,12 C0,18.627417 5.372583,24 12,24 Z M12,22 C17.5228475,22 22,17.5228475 22,12 C22,6.4771525 17.5228475,2 12,2 C6.4771525,2 2,6.4771525 2,12 C2,17.5228475 6.4771525,22 12,22 Z M8.45,7.99242745 C8.45,7.4443249 8.83671875,7.21420269 9.32934466,7.48706712 L16.5706553,11.4980136 C17.056304,11.7670134 17.0632813,12.1992834 16.5706553,12.4721479 L9.32934466,16.4830943 C8.84369601,16.7520941 8.45,16.5158567 8.45,15.977734 L8.45,7.99242745 Z"></path>
        </g>
    </g>
</svg>