<?xml version="1.0" encoding="UTF-8" standalone="no"?>
<svg width="24px" height="24px" viewBox="0 0 24 24" version="1.1" xmlns="http://www.w3.org/2000/svg" xmlns:xlink="http://www.w3.org/1999/xlink">
    <defs></defs>
    <g stroke="none" stroke-width="1" fill="none" fill-rule="evenodd">
        <g fill="#4E4E4E">
            <path d="M2.00748397,7.77156117e-16 C0.898062175,7.77156117e-16 -3.31135563e-09,0.887822772 -3.31135563e-09,2.00246167 L-3.31135563e-09,21.9975383 C-3.31135563e-09,23.1052776 0.888952483,24 2.00246167,24 L21.9975383,24 C23.1024978,24 24,23.1057676 24,22.0014977 L24,10 L22,10 L22,22.0014977 C22,21.9995607 2.00246167,22 2.00246167,22 C1.99642889,22 2,2.00246167 2,2.00246167 C2,1.9975586 16,2 16,2 L16,7.77156117e-16 L2.00748397,7.77156117e-16 Z M10.8571057,17.8719471 L10.9791206,18.0113926 C11.3430101,18.4272664 11.9249795,18.4111943 12.2689533,17.9878419 L12.3857964,17.8440351 L23.8070114,1.66398042 C24.1266655,1.21113712 24.0413067,0.564137202 23.6096824,0.21344246 L23.6096824,0.21344246 C23.1810465,-0.13482423 22.5678649,-0.0461906278 22.247409,0.401211045 L11.6380011,15.2134426 L6.16985488,11.154419 C5.72383203,10.8233347 5.02821675,10.8472249 4.60968238,11.2134425 L4.60968238,11.2134425 C4.19404575,11.5771245 4.19473024,12.1613395 4.61955377,12.525474 L10.8571057,17.8719471 Z"></path>
        </g>
    </g>
</svg>