<?xml version="1.0" encoding="UTF-8" standalone="no"?>
<svg width="24px" height="24px" viewBox="0 0 24 24" version="1.1" xmlns="http://www.w3.org/2000/svg" xmlns:xlink="http://www.w3.org/1999/xlink">
    <defs></defs>
    <g stroke="none" stroke-width="1" fill="none" fill-rule="evenodd">
        <g fill="#4E4E4E">
            <path d="M11.4748737,10.0251263 L5.64890828,10.0251263 C5.60597108,10.0251263 5.56375244,10.0277303 5.52239252,10.0327862 C5.08101949,8.30367366 3.51304342,7.02512627 1.64644661,7.02512627 C-0.56269239,7.02512627 -2.35355339,8.81598727 -2.35355339,11.0251263 C-2.35355339,13.2342653 -0.56269239,15.0251263 1.64644661,15.0251263 C3.51310061,15.0251263 5.08111556,13.7465005 5.52243308,12.0173074 L5.52243308,12.0173074 C5.56385763,12.0224688 5.60606915,12.0251263 5.64890828,12.0251263 L11.4748737,12.0251263 L11.4748737,17.8579654 C11.4748737,17.89839 11.4773867,17.9383455 11.4822682,17.9776752 C9.75329029,18.419141 8.47487373,19.9870521 8.47487373,21.8535534 C8.47487373,24.0626924 10.2657347,25.8535534 12.4748737,25.8535534 C14.6840127,25.8535534 16.4748737,24.0626924 16.4748737,21.8535534 C16.4748737,19.9871561 15.1965996,18.4193157 13.4677682,17.977749 C13.4724609,17.9384784 13.4748737,17.8985049 13.4748737,17.8579654 L13.4748737,12.0251263 L25.6439849,12.0251263 C26.2069883,12.0251263 26.6464466,11.577411 26.6464466,11.0251263 C26.6464466,10.4689911 26.1976292,10.0251263 25.6439849,10.0251263 L13.4748737,10.0251263 L13.4748737,-2.97928578 C13.4748737,-3.51886725 13.0271585,-3.97487373 12.4748737,-3.97487373 C11.9187386,-3.97487373 11.4748737,-3.52913382 11.4748737,-2.97928578 L11.4748737,10.0251263 Z M1.64644661,13.0251263 C2.75101611,13.0251263 3.64644661,12.1296958 3.64644661,11.0251263 C3.64644661,9.92055677 2.75101611,9.02512627 1.64644661,9.02512627 C0.54187711,9.02512627 -0.353553391,9.92055677 -0.353553391,11.0251263 C-0.353553391,12.1296958 0.54187711,13.0251263 1.64644661,13.0251263 Z M14.4748737,21.8535534 C14.4748737,20.7489839 13.5794432,19.8535534 12.4748737,19.8535534 C11.3703042,19.8535534 10.4748737,20.7489839 10.4748737,21.8535534 C10.4748737,22.9581229 11.3703042,23.8535534 12.4748737,23.8535534 C13.5794432,23.8535534 14.4748737,22.9581229 14.4748737,21.8535534 Z" transform="translate(11.060660, 10.939340) rotate(-315.000000) translate(-11.060660, -10.939340) "></path>
        </g>
    </g>
</svg>