<?xml version="1.0" encoding="UTF-8" standalone="no"?>
<svg width="24px" height="24px" viewBox="0 0 24 24" version="1.1" xmlns="http://www.w3.org/2000/svg" xmlns:xlink="http://www.w3.org/1999/xlink">
    <defs></defs>
    <g stroke="none" stroke-width="1" fill="none" fill-rule="evenodd">
        <g fill="#4F4F4F">
            <path d="M12.36192,24 L11.63808,24 C10.46832,24 9.4464,23.16912 9.20784,22.02432 C9.15888,21.7896 9.01248,21.63168 8.808,21.564 C8.36016,21.41472 7.91856,21.23232 7.49472,21.02064 C7.30512,20.92608 7.08336,20.93376 6.91824,21.04176 C5.8824,21.72048 4.5816,21.55152 3.77088,20.74128 L3.2592,20.2296 C2.43216,19.40256 2.2968,18.09216 2.93808,17.11392 C3.0576,16.93152 3.0648,16.71552 2.96688,16.5216 C2.74848,16.09008 2.56032,15.63936 2.40768,15.18288 C2.33952,14.9808 2.18256,14.83536 1.98672,14.79456 C0.83088,14.5536 0,13.5312 0,12.36192 L0,11.63808 C0,10.46832 0.83088,9.4464 1.97568,9.20784 C2.172,9.16704 2.32944,9.0216 2.39664,8.81856 C2.55072,8.35488 2.74032,7.90032 2.9592,7.46592 C3.0552,7.27584 3.04944,7.06416 2.9448,6.89712 L2.9376,6.88656 C2.29632,5.90832 2.43168,4.59744 3.25872,3.77088 L3.7704,3.2592 C4.23936,2.79024 4.8624,2.532 5.52624,2.532 C6.01056,2.532 6.48048,2.67216 6.88608,2.93808 C7.06608,3.0552 7.28256,3.05856 7.47072,2.96496 C7.90368,2.74704 8.35632,2.55984 8.81472,2.40816 C9.01872,2.34048 9.16464,2.18304 9.20544,1.98672 C9.4464,0.83088 10.4688,0 11.63808,0 L12.36192,0 C13.53168,0 14.5536,0.83088 14.79216,1.97568 C14.83968,2.20224 14.98416,2.35968 15.1872,2.42784 C15.63696,2.57904 16.07952,2.76432 16.5024,2.97792 C16.69056,3.07296 16.91568,3.06576 17.08128,2.95824 C18.11808,2.2776 19.41792,2.44752 20.22912,3.25824 L20.7408,3.76992 C21.56784,4.59696 21.7032,5.90736 21.06192,6.8856 L21.02736,6.9384 C20.91936,7.10256 20.91168,7.31856 21.00816,7.512 C21.21696,7.93104 21.39696,8.36544 21.5424,8.8032 C21.61056,9.00672 21.76848,9.15312 21.96432,9.19392 L22.02048,9.20544 C23.16912,9.4464 24,10.4688 24,11.63808 L24,12.36192 C24,13.53168 23.16912,14.5536 22.02432,14.79216 L21.95568,14.80656 C21.75936,14.84736 21.60144,14.99328 21.5328,15.19632 C21.38592,15.6312 21.20736,16.06128 21.00144,16.4736 C20.90448,16.66752 20.91216,16.88352 21.02256,17.052 L21.06192,17.112 C21.70368,18.0912 21.56832,19.40208 20.74128,20.22864 L20.2296,20.74032 C19.76064,21.20928 19.1376,21.46752 18.47376,21.46752 L18.47376,21.46752 C17.98944,21.46752 17.51952,21.32736 17.11392,21.06144 L17.05728,21.02448 C16.89504,20.91792 16.66848,20.9112 16.48032,21.00528 C16.06416,21.21408 15.6312,21.39504 15.19392,21.5424 C14.99088,21.61104 14.84544,21.76848 14.80464,21.96384 L14.79312,22.02 C14.5536,23.16912 13.5312,24 12.36192,24 L12.36192,24 Z M7.2552381,18.977619 C7.64190476,18.977619 8.03095238,19.07 8.38,19.2447619 C8.72047619,19.4138095 9.0752381,19.5609524 9.43428571,19.6804762 C10.2752381,19.9595238 10.9085714,20.6633333 11.0866667,21.5171429 C11.1480952,21.8128571 11.377619,22 11.6409524,22 L12.3590476,22 C12.622381,22 12.8519048,21.8128571 12.9052381,21.5557143 L12.9166667,21.5 C13.0942857,20.647619 13.7228571,19.9447619 14.557619,19.6633333 C14.9085714,19.5447619 15.2557143,19.3995238 15.5895238,19.232381 C16.3728571,18.8395238 17.34,18.8885714 18.0614286,19.3614286 L18.117619,19.3980952 C18.33,19.537619 18.6347619,19.5066667 18.8166667,19.3252381 L19.3242857,18.817619 C19.5104762,18.6314286 19.5404762,18.3366667 19.3961905,18.1166667 L19.3566667,18.0566667 C18.8790476,17.3266667 18.8290476,16.3809524 19.2252381,15.587619 C19.3904762,15.2566667 19.5338095,14.9119048 19.6514286,14.5633333 C19.9338095,13.7266667 20.6366667,13.0971429 21.4866667,12.92 L21.5547619,12.9057143 C21.8128571,12.8519048 22,12.622381 22,12.3590476 L22,11.6409524 C22,11.377619 21.8128571,11.1480952 21.5557143,11.0947619 L21.5,11.0833333 C20.6447619,10.9047619 19.9414286,10.2733333 19.6604762,9.43380952 C19.5433333,9.08238095 19.3990476,8.73380952 19.2319048,8.39761905 C18.837619,7.6052381 18.8880952,6.66095238 19.3647619,5.93285714 L19.3990476,5.88047619 C19.5414286,5.66380952 19.5109524,5.36904762 19.3252381,5.18285714 L18.817619,4.6752381 C18.6357143,4.49380952 18.3338095,4.46142857 18.1166667,4.60333333 C17.3352381,5.1152381 16.3919048,5.14666667 15.6080952,4.75095238 C15.2690476,4.58 14.9142857,4.43095238 14.5528571,4.30952381 C13.7166667,4.02666667 13.0880952,3.32428571 12.9119048,2.4747619 C12.8519048,2.18714286 12.622381,2 12.3590476,2 L11.6409524,2 C11.377619,2 11.1480952,2.18714286 11.0947619,2.44428571 C10.9147619,3.30904762 10.2809524,4.01333333 9.43857143,4.29190476 C9.07142857,4.41380952 8.70952381,4.56380952 8.36142857,4.73857143 C7.57904762,5.13190476 6.61380952,5.08142857 5.89190476,4.60952381 C5.65333333,4.45333333 5.36428571,4.49428571 5.18238095,4.67571429 L4.6747619,5.18333333 C4.49142857,5.36714286 4.45952381,5.65619048 4.59714286,5.87571429 L4.60428571,5.88571429 C5.08380952,6.61714286 5.13238095,7.5652381 4.73238095,8.35952381 C4.55666667,8.70809524 4.4047619,9.07333333 4.28095238,9.4447619 C4.00238095,10.2847619 3.29857143,10.9171429 2.44428571,11.0947619 C2.18714286,11.1480952 2,11.377619 2,11.6409524 L2,12.3590476 C2,12.622381 2.18714286,12.8519048 2.44428571,12.9052381 C3.30571429,13.0842857 4.00857143,13.7147619 4.28952381,14.5519048 C4.41190476,14.9180952 4.56285714,15.2790476 4.73761905,15.6252381 C5.14047619,16.4214286 5.09190476,17.3704762 4.61142857,18.1033333 C4.45857143,18.3361905 4.48857143,18.6309524 4.6747619,18.8171429 L5.18238095,19.3247619 C5.36428571,19.5061905 5.66619048,19.5385714 5.88333333,19.3966667 C6.31333333,19.1157143 6.77666667,18.977619 7.2552381,18.977619 Z M11.999723,17 C9.24259206,17 7,14.7568541 7,12.0002769 C7,9.24259208 9.24314592,7 11.999723,7 C14.7574078,7 16.9999999,9.24314594 16.9999999,12.0002769 C17.0005538,14.7568541 14.7574078,17 11.999723,17 Z M11.9997016,9 C10.3455992,9 9,10.3460621 9,12 C9,13.6539379 10.3455992,15 11.9997016,15 C13.6538041,15 15,13.6545346 15,12.0005967 C15,10.3466587 13.6544008,9 11.9997016,9 Z"></path>
        </g>
    </g>
</svg>