<?xml version="1.0" encoding="UTF-8" standalone="no"?>
<svg width="24px" height="24px" viewBox="0 0 24 24" version="1.1" xmlns="http://www.w3.org/2000/svg" xmlns:xlink="http://www.w3.org/1999/xlink">
    <defs></defs>
    <g stroke="none" stroke-width="1" fill="none" fill-rule="evenodd">
        <g fill="#4E4E4E">
            <path d="M2,5 C2,4.44771525 2.45530558,4 2.99180311,4 L21.0081969,4 C21.5559546,4 22,4.44386482 22,5 C22,5.55228475 21.5446944,6 21.0081969,6 L2.99180311,6 C2.44404538,6 2,5.55613518 2,5 Z M2,12 C2,11.4477153 2.44463086,11 3.00087166,11 L16.9991283,11 C17.5518945,11 18,11.4438648 18,12 C18,12.5522847 17.5553691,13 16.9991283,13 L3.00087166,13 C2.4481055,13 2,12.5561352 2,12 Z M2,19 C2,18.4477153 2.44483697,18 2.9955775,18 L12.0044225,18 C12.5542648,18 13,18.4438648 13,19 C13,19.5522847 12.555163,20 12.0044225,20 L2.9955775,20 C2.44573523,20 2,19.5561352 2,19 Z"></path>
        </g>
    </g>
</svg>