<?xml version="1.0" encoding="UTF-8" standalone="no"?>
<svg width="24px" height="24px" viewBox="0 0 24 24" version="1.1" xmlns="http://www.w3.org/2000/svg" xmlns:xlink="http://www.w3.org/1999/xlink">
    <defs></defs>
    <g stroke="none" stroke-width="1" fill="none" fill-rule="evenodd">
        <g fill="#4E4E4E">
            <path d="M9,6 L9,19.4947588 C9,20.3260806 8.33420277,21 7.5,21 C6.67157288,21 6,20.3328702 6,19.4947588 L6,6 L1.49309635,6 C0.668482007,6 0,5.33420277 0,4.5 C0,3.67157288 0.663885847,3 1.49309635,3 L13.5069036,3 C14.331518,3 15,3.66579723 15,4.5 C15,5.32842712 14.3361142,6 13.5069036,6 L9,6 L9,6 Z M12,9 C12,8.44771525 12.444837,8 12.9955775,8 L22.0044225,8 C22.5542648,8 23,8.44386482 23,9 C23,9.55228475 22.555163,10 22.0044225,10 L12.9955775,10 C12.4457352,10 12,9.55613518 12,9 Z M12,13 C12,12.4477153 12.444837,12 12.9955775,12 L22.0044225,12 C22.5542648,12 23,12.4438648 23,13 C23,13.5522847 22.555163,14 22.0044225,14 L12.9955775,14 C12.4457352,14 12,13.5561352 12,13 Z M12,17 C12,16.4477153 12.4530363,16 12.9970301,16 L19.0029699,16 C19.5536144,16 20,16.4438648 20,17 C20,17.5522847 19.5469637,18 19.0029699,18 L12.9970301,18 C12.4463856,18 12,17.5561352 12,17 Z"></path>
        </g>
    </g>
</svg>