<?xml version="1.0" encoding="UTF-8" standalone="no"?>
<svg width="24px" height="24px" viewBox="0 0 24 24" version="1.1" xmlns="http://www.w3.org/2000/svg" xmlns:xlink="http://www.w3.org/1999/xlink">
    <defs></defs>
    <g stroke="none" stroke-width="1" fill="none" fill-rule="evenodd">
        <g>
            <circle stroke="#348AD2" stroke-width="2" cx="12" cy="12" r="11"></circle>
            <path d="M14.8284271,10 L8.99703014,10 C8.72552077,10 8.47666934,10.1115279 8.29549274,10.2919208 C8.11057185,10.473337 8,10.7221975 8,10.9970301 L8,17.0029699 C8,17.5469637 8.44771525,18 9,18 C9.55613518,18 10,17.5536144 10,17.0029699 L10,12 L10,12 L14.8284271,12 L14.8284271,12 L12.2907932,14.5376339 C11.9061315,14.9222956 11.9023689,15.5592232 12.2928932,15.9497475 C12.6861402,16.3429944 13.3156423,16.341212 13.7050068,15.9518475 L17.9518475,11.7050068 C18.1438336,11.5130207 18.240936,11.258194 18.2414902,11.0025258 C18.2439683,10.7434863 18.1461835,10.4893292 17.9518475,10.2949932 L13.7050068,6.04815252 C13.320345,5.6634908 12.6834175,5.65972824 12.2928932,6.05025253 C11.8996463,6.44349949 11.9014287,7.0730016 12.2907932,7.46236609 L14.8284271,10 Z" fill="#368ED8"></path>
        </g>
    </g>
</svg>