<?xml version="1.0" encoding="UTF-8" standalone="no"?>
<svg width="24px" height="24px" viewBox="0 0 24 24" version="1.1" xmlns="http://www.w3.org/2000/svg" xmlns:xlink="http://www.w3.org/1999/xlink">
    <defs></defs>
    <g stroke="none" stroke-width="1" fill="none" fill-rule="evenodd">
        <g fill="#4E4E4E">
            <path d="M24,6 C24,6.55228475 23.5550537,7 23.0066023,7 L6.99339768,7 C6.44475929,7 6,6.55613518 6,6 C6,5.44771525 6.44494629,5 6.99339768,5 L23.0066023,5 C23.5552407,5 24,5.44386482 24,6 Z M4,6 C4,7.10266667 3.10266667,8 2,8 C0.897333333,8 0,7.10266667 0,6 C0,4.89733333 0.897333333,4 2,4 C3.10266667,4 4,4.89733333 4,6 Z M23.0066023,13 C23.5552407,13 24,12.5561352 24,12 C24,11.4477153 23.5550537,11 23.0066023,11 L6.99339768,11 C6.44475929,11 6,11.4438648 6,12 C6,12.5522847 6.44494629,13 6.99339768,13 L23.0066023,13 Z M4,12 C4,13.1026667 3.10266667,14 2,14 C0.897333333,14 0,13.1026667 0,12 C0,10.8973333 0.897333333,10 2,10 C3.10266667,10 4,10.8973333 4,12 Z M23.0066023,19 C23.5552407,19 24,18.5561352 24,18 C24,17.4477153 23.5550537,17 23.0066023,17 L6.99339768,17 C6.44475929,17 6,17.4438648 6,18 C6,18.5522847 6.44494629,19 6.99339768,19 L23.0066023,19 Z M4,18 C4,19.1026667 3.10266667,20 2,20 C0.897333333,20 0,19.1026667 0,18 C0,16.8973333 0.897333333,16 2,16 C3.10266667,16 4,16.8973333 4,18 Z"></path>
        </g>
    </g>
</svg>